<svg width="152" height="144" viewBox="0 0 152 144" fill="none" xmlns="http://www.w3.org/2000/svg">
<path d="M137.731 55.4334C134.102 53.8891 129.831 54.918 127.542 57.7081C127.235 58.0733 126.965 58.4635 126.737 58.8872L119.779 71.8299C118.722 73.7957 115.407 73.1259 115.407 70.9451V16.1085C115.407 14.0822 114.485 12.2436 112.993 10.9143C111.507 9.58497 109.446 8.76275 107.171 8.76275C102.613 8.76275 98.9263 12.0537 98.9263 16.1064V55.2894C98.9263 56.5332 97.7942 57.5411 96.3985 57.5411C95.0027 57.5411 93.8706 56.5332 93.8706 55.2894V7.34368C93.8706 3.2889 90.1814 0 85.628 0C81.0746 0 77.3854 3.28681 77.3854 7.34368V55.2936C77.3854 56.5374 76.2533 57.5453 74.8576 57.5453C73.4618 57.5453 72.3297 56.5374 72.3297 55.2936V12.8551C72.3297 8.81283 68.7786 5.34446 64.242 5.26934C59.6195 5.19421 55.8466 8.51024 55.8466 12.6109V55.2936C55.8466 56.5374 54.7145 57.5453 53.3187 57.5453C51.923 57.5453 50.7909 56.5374 50.7909 55.2936V22.8992C50.7909 18.8569 47.2419 15.3885 42.7031 15.3134C38.0807 15.2383 34.3078 18.5543 34.3078 22.655V57.5453H34.3057V81.6319C34.3057 104.533 55.3339 123.828 81.039 123.772C100.856 123.728 117.757 112.676 124.46 97.1102L141.598 65.2292C142.146 64.2066 142.41 63.1235 142.41 62.0613C142.41 59.3233 140.683 56.6981 137.729 55.4334H137.731Z" fill="#F0F0F0"/>
<path d="M30.3361 135.784C29.5095 135.6 28.6662 135.379 27.8292 135.129C27.7559 135.106 27.712 135.018 27.7308 134.933C27.7497 134.847 27.825 134.795 27.8982 134.818C28.7311 135.068 29.5681 135.287 30.3884 135.469C30.4637 135.486 30.5118 135.569 30.4972 135.657C30.4846 135.734 30.426 135.786 30.3612 135.786C30.3528 135.786 30.3444 135.786 30.3361 135.782V135.784ZM35.601 136.537C34.7535 136.5 33.883 136.429 33.0125 136.329C32.935 136.32 32.8764 136.241 32.8785 136.153C32.8806 136.066 32.9455 136.003 33.0229 136.011C33.8872 136.112 34.7535 136.183 35.5947 136.22C35.6721 136.224 35.7349 136.297 35.737 136.385C35.737 136.462 35.693 136.525 35.6282 136.537C35.6198 136.537 35.6114 136.537 35.6031 136.537H35.601ZM41.7134 136.804C40.8659 136.848 39.9933 136.863 39.1165 136.848C39.0391 136.848 38.9721 136.775 38.9658 136.688C38.9595 136.6 39.016 136.531 39.0935 136.531C39.964 136.548 40.8324 136.531 41.6736 136.489C41.751 136.485 41.8222 136.552 41.8326 136.64C41.8431 136.717 41.8033 136.784 41.7406 136.8C41.7322 136.802 41.7238 136.804 41.7155 136.804H41.7134ZM47.2377 136.272C46.4007 136.402 45.5344 136.506 44.6597 136.579C44.5823 136.585 44.5069 136.521 44.4923 136.435C44.4756 136.35 44.5258 136.274 44.6032 136.266C45.4716 136.193 46.3338 136.091 47.1645 135.961C47.2398 135.949 47.3173 136.009 47.3382 136.095C47.357 136.17 47.3235 136.241 47.2629 136.264C47.2545 136.268 47.2461 136.27 47.2377 136.27V136.272ZM52.4671 135.079C51.6656 135.348 50.8307 135.596 49.9832 135.815C49.9079 135.834 49.8221 135.784 49.7928 135.701C49.7614 135.617 49.797 135.538 49.8723 135.517C50.7135 135.3 51.5443 135.054 52.3394 134.784C52.4127 134.759 52.5006 134.805 52.5361 134.887C52.5675 134.958 52.5487 135.033 52.4922 135.066C52.4859 135.07 52.4775 135.074 52.4692 135.077L52.4671 135.079ZM25.3599 134.296C24.548 133.993 23.734 133.66 22.9367 133.301C22.8656 133.269 22.83 133.175 22.8572 133.094C22.8844 133.011 22.964 132.971 23.0351 133.002C23.8282 133.357 24.638 133.689 25.4436 133.991C25.5169 134.019 25.5566 134.108 25.5336 134.194C25.5148 134.263 25.4604 134.304 25.4018 134.304C25.3871 134.304 25.3746 134.302 25.3599 134.296ZM20.5638 132.149C19.7791 131.735 19.0027 131.295 18.2536 130.836C18.1866 130.794 18.1594 130.698 18.195 130.619C18.2306 130.54 18.3143 130.51 18.3812 130.552C19.1241 131.007 19.8962 131.445 20.6768 131.857C20.7458 131.892 20.7772 131.988 20.7458 132.069C20.7228 132.128 20.6726 132.163 20.6203 132.163C20.6014 132.163 20.5826 132.159 20.5638 132.149ZM16.0187 129.361C15.2759 128.833 14.5539 128.278 13.8717 127.712C13.809 127.66 13.7964 127.56 13.8404 127.489C13.8843 127.416 13.9701 127.399 14.0329 127.451C14.7088 128.01 15.4244 128.561 16.1631 129.087C16.228 129.133 16.2489 129.231 16.2091 129.308C16.184 129.359 16.138 129.386 16.092 129.386C16.0668 129.386 16.0417 129.377 16.0208 129.363L16.0187 129.361ZM11.8399 125.88C11.166 125.216 10.532 124.53 9.95445 123.839C9.90214 123.776 9.90214 123.674 9.95654 123.611C10.0109 123.551 10.0988 123.551 10.1512 123.615C10.7224 124.3 11.3481 124.978 12.0156 125.633C12.0742 125.69 12.0805 125.792 12.0324 125.859C12.0052 125.896 11.9654 125.915 11.9277 125.915C11.8964 125.915 11.865 125.903 11.8378 125.878L11.8399 125.88ZM8.27202 121.568C7.73214 120.74 7.26131 119.893 6.8721 119.049C6.83652 118.972 6.86163 118.874 6.9286 118.832C6.99556 118.791 7.07926 118.82 7.11483 118.897C7.49777 119.726 7.96232 120.56 8.49174 121.374C8.53778 121.445 8.52523 121.545 8.46454 121.6C8.43943 121.62 8.41013 121.633 8.38084 121.633C8.33899 121.633 8.29714 121.612 8.26993 121.57L8.27202 121.568ZM5.86976 116.28C5.61237 115.297 5.45752 114.302 5.40939 113.321C5.40521 113.233 5.4638 113.156 5.53913 113.152C5.61655 113.146 5.67933 113.215 5.68561 113.302C5.73165 114.256 5.88231 115.226 6.13342 116.186C6.15644 116.272 6.11459 116.362 6.04135 116.387C6.02879 116.391 6.01414 116.393 6.00159 116.393C5.943 116.393 5.88859 116.349 5.86976 116.28ZM5.70444 110.506C5.62911 110.487 5.58098 110.404 5.59563 110.316C5.76303 109.358 6.03716 108.396 6.40964 107.459C6.44103 107.38 6.52264 107.344 6.59169 107.382C6.66075 107.419 6.69004 107.515 6.65865 107.595C6.29455 108.509 6.0267 109.446 5.86348 110.381C5.85092 110.456 5.79233 110.51 5.72955 110.51C5.72118 110.51 5.71072 110.51 5.70235 110.506H5.70444ZM7.75516 105.095C7.69238 105.042 7.67983 104.942 7.72377 104.871C7.88071 104.617 8.04812 104.362 8.21971 104.112C8.57126 103.598 8.97094 103.095 9.40829 102.613C9.4627 102.553 9.55058 102.555 9.6029 102.62C9.65521 102.684 9.65312 102.784 9.59871 102.847C9.17183 103.319 8.78052 103.813 8.43734 104.314C8.26784 104.56 8.10462 104.811 7.94977 105.061C7.92257 105.105 7.88071 105.128 7.83677 105.128C7.80957 105.128 7.78027 105.118 7.75725 105.097L7.75516 105.095ZM11.3711 100.965C11.3272 100.892 11.3439 100.791 11.4067 100.741C12.0721 100.207 12.8108 99.6854 13.6039 99.1929C13.6709 99.1512 13.7546 99.1804 13.7901 99.2597C13.8257 99.3369 13.8006 99.435 13.7336 99.4767C12.9489 99.965 12.2186 100.48 11.5615 101.006C11.5385 101.025 11.5113 101.036 11.4841 101.036C11.4402 101.036 11.3983 101.011 11.3711 100.967V100.965ZM15.8492 98.1077C15.8199 98.0263 15.8492 97.9324 15.9204 97.897C16.6695 97.5192 17.4731 97.1499 18.3122 96.7993C18.3833 96.768 18.4628 96.8118 18.4879 96.8953C18.5131 96.9787 18.4775 97.0706 18.4042 97.0998C17.5714 97.4483 16.772 97.8156 16.0292 98.1891C16.0124 98.1975 15.9936 98.2016 15.9748 98.2016C15.9204 98.2016 15.8701 98.1662 15.8471 98.1056L15.8492 98.1077ZM20.66 96.0584C20.637 95.9729 20.6789 95.8831 20.7521 95.8581C21.5389 95.5784 22.3718 95.303 23.2234 95.0421C23.2967 95.0192 23.372 95.0713 23.3908 95.1569C23.4097 95.2425 23.3657 95.3301 23.2925 95.3531C22.4429 95.6139 21.6142 95.8852 20.8316 96.1649C20.8191 96.169 20.8044 96.1711 20.7919 96.1711C20.7333 96.1711 20.6789 96.1273 20.66 96.0563V96.0584ZM25.6152 94.5225C25.5985 94.4369 25.6445 94.3493 25.7178 94.3305C26.5255 94.1156 27.3709 93.9048 28.2289 93.7044C28.3042 93.6877 28.3753 93.7441 28.39 93.8297C28.4046 93.9173 28.3565 94.0008 28.2812 94.0175C27.4274 94.2178 26.5841 94.4265 25.7785 94.6414C25.768 94.6435 25.7575 94.6456 25.7471 94.6456C25.6843 94.6456 25.6278 94.5955 25.6131 94.5204L25.6152 94.5225ZM30.6416 93.3351C30.629 93.2474 30.6772 93.1639 30.7525 93.1493C31.5665 92.9803 32.4182 92.8154 33.2845 92.6547C33.3598 92.6422 33.431 92.7007 33.4414 92.7883C33.454 92.876 33.4017 92.9573 33.3263 92.972C32.4621 93.1306 31.6104 93.2975 30.8006 93.4645C30.7922 93.4645 30.7839 93.4665 30.7755 93.4665C30.7106 93.4665 30.652 93.4123 30.6395 93.3351H30.6416ZM35.7056 92.396C35.6951 92.3083 35.7475 92.2269 35.8228 92.2144C36.6493 92.0788 37.5052 91.9452 38.3673 91.8179C38.4427 91.8075 38.5117 91.868 38.5222 91.9577C38.5327 92.0454 38.4783 92.1268 38.4029 92.1372C37.5429 92.2645 36.687 92.396 35.8625 92.5316C35.8563 92.5316 35.85 92.5316 35.8437 92.5316C35.7767 92.5316 35.7161 92.4732 35.7077 92.3939L35.7056 92.396ZM40.7926 91.6405C40.7843 91.5529 40.8387 91.4736 40.914 91.4632C41.7489 91.3525 42.6069 91.244 43.4648 91.1418C43.5402 91.1313 43.6092 91.196 43.6155 91.2837C43.6218 91.3713 43.5674 91.4506 43.492 91.459C42.6362 91.5612 41.7782 91.6697 40.9454 91.7803C40.9412 91.7803 40.9349 91.7803 40.9286 91.7803C40.8596 91.7803 40.7989 91.7198 40.7926 91.6384V91.6405ZM45.8943 91.0249C45.888 90.9373 45.9424 90.858 46.0178 90.8496C46.8632 90.7578 47.7149 90.6701 48.5728 90.5846C48.6502 90.5762 48.7151 90.643 48.7214 90.7307C48.7277 90.8183 48.6712 90.8976 48.5958 90.9039C47.7379 90.9873 46.8862 91.0771 46.0429 91.1689C46.0387 91.1689 46.0345 91.1689 46.0303 91.1689C45.9592 91.1689 45.9006 91.1063 45.8943 91.0228V91.0249ZM51.0044 90.5178C50.9981 90.4302 51.0546 90.3529 51.132 90.3446C51.9795 90.2695 52.8312 90.1943 53.6891 90.1255C53.7645 90.1234 53.8314 90.186 53.8356 90.2736C53.8419 90.3613 53.7833 90.4385 53.708 90.4448C52.85 90.5157 51.9983 90.5888 51.1508 90.6639C51.1467 90.6639 51.1446 90.6639 51.1404 90.6639C51.0692 90.6639 51.0086 90.5992 51.0044 90.5157V90.5178ZM56.1186 90.0942C56.1144 90.0065 56.1709 89.9293 56.2463 89.923C57.0958 89.8583 57.9496 89.7978 58.8055 89.7373C58.8787 89.7311 58.9457 89.7999 58.9519 89.8876C58.9561 89.9752 58.8975 90.0524 58.8222 90.0566C57.9663 90.1171 57.1126 90.1776 56.2651 90.2423C56.2609 90.2423 56.2588 90.2423 56.2567 90.2423C56.1835 90.2423 56.1249 90.1776 56.1186 90.0921V90.0942ZM61.237 89.7352C61.2328 89.6476 61.2914 89.5704 61.3668 89.5662C62.2164 89.5119 63.0701 89.4577 63.9281 89.4055C64.0055 89.3992 64.0683 89.4681 64.0725 89.5578C64.0766 89.6455 64.0181 89.7227 63.9427 89.7269C63.0869 89.779 62.2331 89.8312 61.3835 89.8876C61.3814 89.8876 61.3793 89.8876 61.3751 89.8876C61.3019 89.8876 61.2412 89.8208 61.237 89.7352ZM66.3575 89.4243C66.3534 89.3366 66.4119 89.2594 66.4894 89.2573C67.3411 89.2093 68.1948 89.1634 69.0507 89.1175C69.126 89.1071 69.1909 89.1822 69.1951 89.2699C69.1993 89.3575 69.1407 89.4326 69.0632 89.4368C68.2074 89.4827 67.3536 89.5286 66.5019 89.5766C66.4998 89.5766 66.4977 89.5766 66.4957 89.5766C66.4224 89.5766 66.3617 89.5098 66.3575 89.4243ZM71.4739 89.1509C71.4697 89.0633 71.5304 88.9881 71.6057 88.984C72.4595 88.9401 73.3132 88.8984 74.167 88.8567C74.2402 88.8504 74.3072 88.9213 74.3114 89.0111C74.3156 89.0987 74.2549 89.1739 74.1796 89.178C73.3258 89.2198 72.472 89.2615 71.6183 89.3053H71.612C71.5387 89.3053 71.4781 89.2385 71.4739 89.153V89.1509ZM76.6007 88.8984C76.5965 88.8107 76.6572 88.7356 76.7325 88.7314C77.5863 88.6918 78.44 88.6501 79.2938 88.6104C79.3733 88.6021 79.434 88.6751 79.4361 88.7648C79.4403 88.8525 79.3796 88.9276 79.3043 88.9318C78.4505 88.9714 77.5967 89.0111 76.743 89.0528H76.7367C76.6634 89.0528 76.6028 88.986 76.5986 88.8984H76.6007ZM81.7233 88.6605C81.7212 88.5728 81.7798 88.4977 81.8551 88.4935L84.4164 88.3746C84.4897 88.3642 84.5566 88.4393 84.5587 88.529C84.5608 88.6167 84.5022 88.6918 84.4269 88.696L81.8656 88.8149H81.8593C81.7861 88.8149 81.7254 88.7481 81.7212 88.6605H81.7233ZM86.8459 88.4226C86.8417 88.3349 86.9024 88.2598 86.9777 88.2556C87.8336 88.216 88.6873 88.1742 89.539 88.1346C89.6185 88.1221 89.6792 88.1993 89.6834 88.289C89.6876 88.3767 89.6269 88.4518 89.5516 88.456C88.6999 88.4977 87.8461 88.5374 86.9903 88.5791H86.984C86.9108 88.5791 86.8501 88.5123 86.8459 88.4247V88.4226ZM91.9685 88.1742C91.9643 88.0866 92.025 88.0115 92.1003 88.0073C92.9562 87.9635 93.81 87.9197 94.6616 87.8758C94.7349 87.8696 94.8018 87.9405 94.806 88.0282C94.8102 88.1158 94.7495 88.1909 94.6742 88.1951C93.8225 88.2389 92.9687 88.2828 92.1129 88.3266C92.1129 88.3266 92.1087 88.3266 92.1066 88.3266C92.0334 88.3266 91.9727 88.2598 91.9685 88.1722V88.1742ZM97.0911 87.905C97.0869 87.8174 97.1455 87.7402 97.2229 87.7381C98.0809 87.6901 98.9347 87.6421 99.7842 87.5899C99.8617 87.5816 99.9244 87.6525 99.9286 87.7423C99.9328 87.8299 99.8742 87.9071 99.7989 87.9113C98.9493 87.9614 98.0955 88.0115 97.2376 88.0595C97.2355 88.0595 97.2334 88.0595 97.2313 88.0595C97.1581 88.0595 97.0974 87.9927 97.0932 87.9071L97.0911 87.905ZM102.212 87.6004C102.207 87.5127 102.266 87.4355 102.341 87.4313C103.199 87.3771 104.053 87.3186 104.901 87.2602C104.978 87.256 105.041 87.3228 105.047 87.4105C105.051 87.4981 104.993 87.5753 104.917 87.5795C104.07 87.6379 103.216 87.6964 102.356 87.7506C102.354 87.7506 102.35 87.7506 102.348 87.7506C102.274 87.7506 102.214 87.6838 102.21 87.5983L102.212 87.6004ZM107.33 87.2456C107.326 87.158 107.382 87.0807 107.458 87.0745C108.318 87.0098 109.169 86.9409 110.015 86.87C110.09 86.8658 110.157 86.9305 110.161 87.0181C110.168 87.1058 110.109 87.183 110.034 87.1893C109.188 87.2602 108.334 87.327 107.474 87.3938C107.47 87.3938 107.468 87.3938 107.466 87.3938C107.395 87.3938 107.334 87.3291 107.328 87.2435L107.33 87.2456ZM112.446 86.8199C112.44 86.7322 112.497 86.655 112.572 86.6467C113.432 86.5674 114.284 86.486 115.127 86.4004C115.204 86.3921 115.269 86.4568 115.276 86.5465C115.282 86.6341 115.225 86.7134 115.15 86.7197C114.307 86.8053 113.455 86.8887 112.593 86.968C112.589 86.968 112.587 86.968 112.582 86.968C112.511 86.968 112.451 86.9054 112.444 86.8199H112.446ZM117.554 86.3002C117.548 86.2126 117.602 86.1333 117.678 86.125C118.548 86.0269 119.406 85.9225 120.227 85.8182C120.302 85.8057 120.371 85.8724 120.379 85.9601C120.388 86.0477 120.333 86.127 120.258 86.1375C119.436 86.2418 118.578 86.3462 117.705 86.4442C117.701 86.4442 117.697 86.4442 117.69 86.4442C117.621 86.4442 117.561 86.3816 117.554 86.3002ZM122.652 85.6533C122.643 85.5657 122.696 85.4864 122.771 85.4738C123.64 85.3486 124.493 85.2192 125.311 85.0857C125.387 85.0732 125.456 85.1337 125.466 85.2234C125.477 85.3111 125.424 85.3925 125.349 85.405C124.529 85.5385 123.673 85.6679 122.805 85.7931C122.798 85.7931 122.794 85.7931 122.788 85.7931C122.719 85.7931 122.66 85.7326 122.652 85.6533ZM127.733 84.8311C127.72 84.7434 127.772 84.6621 127.848 84.6474C128.71 84.4888 129.559 84.3198 130.373 84.1466C130.449 84.132 130.52 84.1883 130.535 84.276C130.549 84.3636 130.499 84.4471 130.424 84.4617C129.61 84.6349 128.758 84.804 127.894 84.9626C127.887 84.9626 127.879 84.9626 127.873 84.9626C127.806 84.9626 127.747 84.9062 127.737 84.8269L127.733 84.8311ZM132.778 83.7626C132.761 83.675 132.809 83.5915 132.884 83.5727C133.747 83.3599 134.586 83.1366 135.379 82.907C135.452 82.884 135.527 82.9383 135.546 83.0239C135.565 83.1094 135.519 83.1971 135.446 83.2179C134.651 83.4475 133.809 83.6729 132.943 83.8857C132.933 83.8878 132.924 83.8899 132.914 83.8899C132.851 83.8899 132.792 83.8377 132.78 83.7626H132.778ZM137.752 82.3248C137.731 82.2392 137.771 82.1516 137.844 82.1244C138.696 81.8302 139.512 81.5171 140.269 81.1958C140.34 81.1666 140.42 81.2083 140.445 81.2918C140.47 81.3752 140.434 81.4671 140.363 81.4984C139.602 81.8218 138.779 82.1349 137.923 82.4312C137.911 82.4354 137.896 82.4375 137.884 82.4375C137.825 82.4375 137.769 82.3936 137.752 82.3227V82.3248ZM142.556 80.2901C142.525 80.2087 142.556 80.1148 142.623 80.0772C143.437 79.639 144.191 79.1757 144.858 78.6957C144.923 78.6498 145.009 78.6728 145.049 78.7479C145.088 78.823 145.067 78.9211 145.003 78.9691C144.325 79.4553 143.563 79.927 142.738 80.3694C142.72 80.3798 142.701 80.384 142.68 80.384C142.628 80.384 142.577 80.3485 142.554 80.2901H142.556ZM146.861 77.189C146.811 77.1222 146.815 77.022 146.871 76.9615C147.522 76.2749 148.058 75.5404 148.466 74.7787C148.506 74.7035 148.591 74.6806 148.656 74.7265C148.721 74.7724 148.74 74.8726 148.7 74.9477C148.28 75.7344 147.727 76.492 147.057 77.1994C147.03 77.2266 146.999 77.2412 146.965 77.2412C146.928 77.2412 146.89 77.2245 146.863 77.189H146.861ZM149.504 72.2786C149.43 72.2556 149.386 72.168 149.405 72.0824C149.623 71.1266 149.772 70.15 149.843 69.1775C149.849 69.0899 149.916 69.0231 149.991 69.0314C150.067 69.0398 150.123 69.117 150.117 69.2046C150.044 70.1938 149.893 71.1893 149.671 72.1638C149.654 72.2348 149.6 72.2828 149.537 72.2828C149.525 72.2828 149.514 72.2828 149.502 72.2765L149.504 72.2786ZM149.838 66.2371C149.765 65.2751 149.619 64.2984 149.403 63.3364C149.384 63.2508 149.428 63.1632 149.502 63.1402C149.575 63.1173 149.65 63.1694 149.669 63.255C149.889 64.2337 150.037 65.2271 150.113 66.2079C150.119 66.2956 150.064 66.3749 149.987 66.3811C149.983 66.3811 149.979 66.3811 149.975 66.3811C149.903 66.3811 149.845 66.3185 149.836 66.235L149.838 66.2371ZM148.581 60.5462C148.259 59.6656 147.871 58.7787 147.432 57.9126C147.394 57.8375 147.415 57.7373 147.48 57.6935C147.545 57.6476 147.631 57.6726 147.668 57.7498C148.114 58.6284 148.506 59.5278 148.834 60.421C148.863 60.5024 148.832 60.5963 148.761 60.6318C148.742 60.6401 148.725 60.6443 148.706 60.6443C148.652 60.6443 148.602 60.6088 148.579 60.5462H148.581ZM146.017 55.4543C145.522 54.6863 144.973 53.9204 144.389 53.1754C144.339 53.1107 144.341 53.0085 144.398 52.948C144.454 52.8874 144.54 52.8937 144.592 52.9584C145.183 53.7097 145.735 54.4839 146.237 55.2602C146.283 55.3312 146.271 55.4313 146.21 55.4856C146.185 55.5065 146.156 55.5169 146.126 55.5169C146.084 55.5169 146.043 55.4939 146.015 55.4522L146.017 55.4543ZM142.592 51.076C141.983 50.4208 141.332 49.7697 140.658 49.1415C140.6 49.0852 140.589 48.985 140.637 48.9161C140.686 48.8473 140.771 48.8347 140.832 48.8911C141.512 49.5234 142.169 50.1787 142.782 50.8402C142.839 50.9007 142.841 51.0009 142.789 51.0677C142.761 51.1011 142.724 51.1199 142.688 51.1199C142.655 51.1199 142.621 51.1053 142.594 51.076H142.592ZM138.614 47.3656C137.932 46.8105 137.212 46.2637 136.48 45.7378C136.415 45.6919 136.394 45.5918 136.433 45.5166C136.473 45.4415 136.559 45.4185 136.624 45.4645C137.363 45.9924 138.085 46.5434 138.773 47.1026C138.836 47.1527 138.85 47.2529 138.806 47.3259C138.779 47.3698 138.737 47.3948 138.693 47.3948C138.666 47.3948 138.639 47.3844 138.614 47.3656ZM134.268 44.2499C133.531 43.7845 132.767 43.3275 131.995 42.8934C131.926 42.8559 131.897 42.7599 131.93 42.6785C131.964 42.5992 132.045 42.5658 132.114 42.6034C132.891 43.0395 133.659 43.4986 134.4 43.9682C134.466 44.0099 134.492 44.108 134.454 44.1852C134.429 44.2395 134.381 44.2687 134.333 44.2687C134.31 44.2687 134.289 44.2624 134.268 44.2499ZM129.67 41.6601C128.9 41.274 128.103 40.9005 127.302 40.5457C127.23 40.5144 127.195 40.4205 127.222 40.3391C127.249 40.2556 127.329 40.216 127.4 40.2452C128.203 40.6021 129.005 40.9777 129.779 41.3659C129.848 41.4013 129.882 41.4952 129.85 41.5766C129.827 41.6371 129.777 41.6747 129.725 41.6747C129.706 41.6747 129.689 41.6705 129.67 41.6622V41.6601ZM124.895 39.5419C124.098 39.2289 123.278 38.9284 122.457 38.6467C122.384 38.6216 122.342 38.5319 122.363 38.4463C122.384 38.3608 122.461 38.3128 122.535 38.3378C123.357 38.6216 124.179 38.9242 124.981 39.2373C125.052 39.2644 125.092 39.3562 125.067 39.4397C125.048 39.5065 124.993 39.5482 124.937 39.5482C124.922 39.5482 124.908 39.5461 124.893 39.5398L124.895 39.5419ZM119.994 37.8537C119.176 37.6074 118.341 37.3758 117.508 37.1587C117.435 37.1399 117.387 37.0544 117.404 36.9667C117.42 36.8791 117.494 36.8269 117.569 36.8457C118.404 37.0627 119.243 37.2965 120.063 37.5427C120.137 37.5657 120.181 37.6512 120.162 37.7389C120.145 37.8119 120.091 37.8599 120.028 37.8599C120.015 37.8599 120.005 37.8599 119.992 37.8557L119.994 37.8537ZM115.003 36.5598C114.173 36.3782 113.325 36.2071 112.484 36.0527C112.409 36.0381 112.358 35.9567 112.369 35.869C112.382 35.7814 112.451 35.723 112.526 35.7355C113.371 35.8899 114.221 36.061 115.054 36.2426C115.129 36.2593 115.177 36.3428 115.165 36.4304C115.152 36.5076 115.093 36.5619 115.029 36.5619C115.02 36.5619 115.012 36.5619 115.003 36.5598ZM109.952 35.6374C109.115 35.5143 108.259 35.4037 107.412 35.3077C107.336 35.2993 107.28 35.22 107.288 35.1324C107.294 35.0447 107.366 34.978 107.439 34.9884C108.291 35.0844 109.148 35.195 109.988 35.3181C110.063 35.3286 110.117 35.4099 110.107 35.4976C110.099 35.579 110.038 35.6374 109.971 35.6374C109.965 35.6374 109.96 35.6374 109.954 35.6374H109.952ZM104.863 35.0635C104.022 34.9967 103.164 34.9425 102.31 34.9028C102.235 34.8987 102.174 34.8256 102.178 34.7359C102.182 34.6482 102.247 34.571 102.32 34.5815C103.176 34.6211 104.038 34.6754 104.882 34.7421C104.957 34.7484 105.016 34.8256 105.009 34.9133C105.005 34.9988 104.945 35.0635 104.871 35.0635C104.867 35.0635 104.865 35.0635 104.861 35.0635H104.863Z" fill="#325899"/>
<path d="M99.7361 34.8194C99.8114 34.8194 99.8721 34.7484 99.8742 34.6608C99.8742 34.5731 99.8135 34.5001 99.7382 34.498C99.3113 34.4917 98.8802 34.4875 98.4491 34.4875C98.3738 34.4875 98.311 34.5585 98.311 34.6482C98.311 34.738 98.3717 34.8089 98.4491 34.8089C98.8781 34.8089 99.3071 34.8131 99.734 34.8194H99.7361Z" fill="#325899"/>
<path d="M100.307 34.9133L96.072 35.2284L97.338 32.7241L100.307 34.9133Z" fill="#244885"/>
<path d="M96.4047 36.0151L90.8824 34.1474L97.721 33.7592L96.4047 36.0151Z" fill="#3A67B3"/>
<path d="M90.8762 34.139L99.3637 29.5166L98.1584 31.8101L90.8762 34.139Z" fill="#3A67B3"/>
<path d="M90.8824 34.1474L97.7356 33.7801L100.307 34.9133L98.1583 31.7746L90.8824 34.1474Z" fill="#295399"/>
<path d="M93.1508 40.2515H69.6993C60.9043 40.2515 53.777 47.3614 53.777 56.1304V89.489H61.3835V57.0716C61.3835 51.9713 65.5309 47.8351 70.6452 47.8351H92.207C97.3212 47.8351 101.469 51.9713 101.469 57.0716V89.489H109.075V56.1304C109.075 47.3614 101.946 40.2515 93.1528 40.2515H93.1508Z" fill="#ABABAB"/>
<path d="M36.4945 87.0056V99.1929C36.4945 123.939 56.6104 144 81.424 144C106.238 144 126.354 123.939 126.354 99.1929V87.0056C126.354 79.7245 120.434 73.8208 113.133 73.8208H49.7154C42.4144 73.8208 36.4945 79.7245 36.4945 87.0056Z" fill="#E1E1E1"/>
<path d="M82.9286 125.646C93.2801 125.646 101.672 117.277 101.672 106.954C101.672 96.6306 93.2801 88.2619 82.9286 88.2619C72.577 88.2619 64.1854 96.6306 64.1854 106.954C64.1854 117.277 72.577 125.646 82.9286 125.646Z" fill="white"/>
<path d="M89.1795 121.988C97.5056 118.549 101.459 109.03 98.0106 100.726C94.5619 92.4227 85.0164 88.4796 76.6903 91.919C68.3643 95.3584 64.4104 104.878 67.8592 113.181C71.308 121.485 80.8534 125.428 89.1795 121.988Z" fill="#ABABAB"/>
<path d="M88.3609 101.493C88.3609 98.4041 85.7661 95.9186 82.6335 96.0835C79.8441 96.2316 77.5821 98.5481 77.5025 101.332C77.4439 103.365 78.5132 105.149 80.1266 106.123L79.141 118.521C79.1013 119.031 79.503 119.465 80.0157 119.465H85.8477C86.3604 119.465 86.7622 119.029 86.7224 118.521L85.7368 106.123C87.3083 105.174 88.363 103.458 88.363 101.491L88.3609 101.493Z" fill="white"/>
<path d="M138.618 141.694L120.076 109.667C119.492 108.659 118.036 108.659 117.452 109.667L98.9095 141.694C98.3257 142.702 99.056 143.96 100.222 143.96H137.306C138.472 143.96 139.202 142.702 138.618 141.694Z" fill="#ABABAB"/>
<path d="M135.709 140.632L119.542 112.707C119.197 112.111 118.333 112.111 117.985 112.707L101.818 140.632C101.473 141.229 101.904 141.976 102.597 141.976H134.931C135.624 141.976 136.055 141.229 135.709 140.632Z" fill="white"/>
<path d="M135.709 140.632L119.542 112.707C119.197 112.111 118.333 112.111 117.985 112.707L117.9 112.858L133.443 139.707C133.788 140.304 133.357 141.051 132.665 141.051H101.699C101.684 141.529 102.061 141.976 102.597 141.976H134.931C135.624 141.976 136.055 141.229 135.709 140.632Z" fill="#DDE4F0"/>
<path d="M118.764 134.832C117.931 134.832 117.224 134.185 117.155 133.357L116.136 121.32C116.098 120.871 116.251 120.425 116.556 120.095C116.862 119.763 117.295 119.573 117.745 119.573H119.785C120.235 119.573 120.67 119.763 120.974 120.095C121.277 120.427 121.432 120.873 121.394 121.32L120.375 133.357C120.304 134.183 119.597 134.832 118.766 134.832H118.764Z" fill="#DDE4F0"/>
<path d="M119.783 120.097H117.743C117.102 120.097 116.6 120.642 116.654 121.278L117.674 133.315C117.722 133.879 118.195 134.313 118.762 134.313C119.329 134.313 119.802 133.879 119.85 133.315L120.869 121.278C120.923 120.644 120.421 120.097 119.781 120.097H119.783Z" fill="#ABABAB"/>
<path d="M118.762 139.056C119.772 139.056 120.591 138.24 120.591 137.232C120.591 136.225 119.772 135.408 118.762 135.408C117.752 135.408 116.933 136.225 116.933 137.232C116.933 138.24 117.752 139.056 118.762 139.056Z" fill="#DDE4F0"/>
<path d="M117.458 137.249C117.458 136.531 118.042 135.947 118.764 135.947C119.486 135.947 120.07 136.529 120.07 137.249C120.07 137.969 119.486 138.551 118.764 138.551C118.042 138.551 117.458 137.969 117.458 137.249Z" fill="#ABABAB"/>
<path d="M50.3179 66.5731C47.8445 66.0347 44.7998 64.6803 41.6903 62.6623L33.9122 62.6769L26.1341 62.6915C23.0309 64.7221 19.9924 66.0869 17.5211 66.6357C18.4398 68.3762 20.3126 72.5207 19.7748 77.8964C19.4526 81.1123 18.3853 83.6061 17.5546 85.1608C17.5567 86.2502 17.676 92.0433 22.3801 96.7158C25.3536 99.6687 29.4571 101.493 33.9854 101.484C38.5138 101.476 42.6089 99.6374 45.572 96.672C50.2573 91.9828 50.3556 86.1896 50.3535 85.1003C49.5186 83.5477 48.4409 81.0601 48.1061 77.8443C47.5495 72.4706 49.4077 68.3198 50.3179 66.5752V66.5731Z" fill="#ABABAB"/>
<path d="M33.9813 99.5748C30.1121 99.5811 26.471 98.0848 23.7298 95.3614C20.1305 91.7866 19.553 87.4084 19.4777 85.6011C20.6767 83.2263 21.4154 80.6991 21.6769 78.0822C22.0871 73.9752 21.2417 70.4651 20.1849 67.8398C22.2419 67.1136 24.4789 66.0034 26.7012 64.5927L41.1337 64.5655C43.3601 65.9658 45.6013 67.0698 47.6604 67.7877C46.612 70.4171 45.7792 73.9293 46.206 78.0363C46.4781 80.6511 47.2272 83.1762 48.4346 85.5469C48.3656 87.3541 47.8027 91.7344 44.2181 95.3239C41.4873 98.0576 37.8525 99.5665 33.9813 99.5748Z" fill="white"/>
<path d="M33.9792 98.0096C30.4908 98.0159 27.2118 96.6678 24.7405 94.2136C21.6079 91.1021 21.0178 87.2936 20.9194 85.6074C22.0536 83.3077 22.7546 80.864 23.0078 78.3389C23.3259 75.1501 22.9262 71.9906 21.8151 68.9354C23.5644 68.253 25.4247 67.3014 27.2536 66.1578L40.5875 66.1328C42.4206 67.2701 44.2851 68.2134 46.0365 68.8895C44.9379 71.951 44.5487 75.1105 44.8793 78.2971C45.1409 80.8201 45.8524 83.2618 46.9949 85.5573C46.9008 87.2435 46.3253 91.0541 43.2053 94.1761C40.7444 96.6386 37.4675 97.9992 33.9812 98.0076L33.9792 98.0096Z" fill="white"/>
<path d="M28.3522 79.3197L25.5649 83.5247L32.8241 87.7569L42.3264 77.4811L38.0806 74.2757L32.6483 83.0197L28.3522 79.3197Z" fill="#ABABAB"/>
<path d="M122.694 53.3424C122.765 53.4551 122.786 53.5928 122.754 53.7284C122.71 53.9058 122.579 54.0436 122.403 54.0936L120.702 54.5882C120.526 54.6404 120.342 54.5945 120.208 54.4672C120.074 54.3399 120.021 54.1583 120.065 53.981L120.486 52.2635C120.53 52.0861 120.662 51.9483 120.838 51.8983C121.013 51.8482 121.197 51.892 121.331 52.0193L122.612 53.2422C122.643 53.2735 122.673 53.3069 122.694 53.3424ZM120.467 54.1583C120.467 54.1583 120.48 54.175 120.486 54.1813C120.499 54.1938 120.536 54.223 120.591 54.2063L122.292 53.7117C122.346 53.695 122.361 53.6512 122.365 53.6345C122.369 53.6178 122.376 53.5698 122.336 53.5323L121.055 52.3094C121.015 52.2718 120.969 52.2781 120.951 52.2843C120.932 52.2906 120.89 52.3073 120.877 52.3615L120.457 54.079C120.448 54.1145 120.457 54.1416 120.469 54.1604L120.467 54.1583Z" fill="url(#paint0_linear_2_7)"/>
<path d="M2.64299 87.064C2.71414 87.1767 2.73506 87.3145 2.70367 87.4501C2.65973 87.6275 2.52999 87.7652 2.35212 87.8153L0.650865 88.3099C0.475089 88.3621 0.290943 88.3162 0.157018 88.1889C0.0251867 88.0616 -0.0292201 87.88 0.0147238 87.7026L0.43533 85.9851C0.479274 85.8077 0.611106 85.67 0.786882 85.6199C0.962657 85.5678 1.1468 85.6137 1.28073 85.741L2.56138 86.9639C2.59277 86.9952 2.62206 87.0286 2.64299 87.064ZM0.416497 87.88C0.416497 87.88 0.429052 87.8967 0.433237 87.903C0.445793 87.9155 0.483459 87.9447 0.537866 87.928L2.23912 87.4334C2.29353 87.4167 2.30818 87.3729 2.31446 87.3562C2.32073 87.3395 2.32492 87.2915 2.28516 87.2539L1.00451 86.031C0.96475 85.9935 0.918714 85.9997 0.89988 86.006C0.881047 86.0123 0.839196 86.029 0.824548 86.0832L0.403942 87.8007C0.395571 87.8362 0.403942 87.8633 0.416497 87.8821V87.88Z" fill="url(#paint1_linear_2_7)"/>
<path d="M31.3279 128.259L31.9535 127.635C32.0958 127.493 32.0958 127.263 31.9535 127.121C31.8112 126.98 31.5811 126.98 31.4388 127.121L30.8131 127.745L30.1874 127.121C30.0451 126.98 29.8149 126.98 29.6726 127.121C29.5303 127.263 29.5303 127.493 29.6726 127.635L30.2983 128.259L29.6747 128.881C29.5324 129.023 29.5324 129.252 29.6747 129.394C29.7459 129.465 29.8379 129.5 29.9321 129.5C30.0263 129.5 30.1184 129.465 30.1895 129.394L30.8131 128.772L31.4367 129.394C31.5078 129.465 31.5999 129.5 31.6941 129.5C31.7882 129.5 31.8803 129.465 31.9514 129.394C32.0937 129.252 32.0937 129.023 31.9514 128.881L31.3279 128.259Z" fill="url(#paint2_linear_2_7)"/>
<path d="M142.236 125.646L142.862 125.022C143.004 124.88 143.004 124.651 142.862 124.509C142.719 124.367 142.489 124.367 142.347 124.509L141.721 125.133L141.096 124.509C140.953 124.367 140.723 124.367 140.581 124.509C140.439 124.651 140.439 124.88 140.581 125.022L141.207 125.646L140.583 126.268C140.441 126.41 140.441 126.639 140.583 126.781C140.654 126.852 140.746 126.888 140.84 126.888C140.934 126.888 141.027 126.852 141.098 126.781L141.721 126.159L142.345 126.781C142.416 126.852 142.508 126.888 142.602 126.888C142.696 126.888 142.789 126.852 142.86 126.781C143.002 126.639 143.002 126.41 142.86 126.268L142.236 125.646Z" fill="url(#paint3_linear_2_7)"/>
<path d="M29.1139 55.6358C28.325 55.6358 27.6847 54.9973 27.6847 54.2105C27.6847 53.4238 28.325 52.7852 29.1139 52.7852C29.9028 52.7852 30.5431 53.4238 30.5431 54.2105C30.5431 54.9973 29.9028 55.6358 29.1139 55.6358ZM29.1139 53.2318C28.5719 53.2318 28.1325 53.6721 28.1325 54.2105C28.1325 54.7489 28.574 55.1893 29.1139 55.1893C29.6538 55.1893 30.0953 54.7489 30.0953 54.2105C30.0953 53.6721 29.6538 53.2318 29.1139 53.2318Z" fill="url(#paint4_linear_2_7)"/>
<path d="M150.571 94.0822C149.782 94.0822 149.142 93.4436 149.142 92.6568C149.142 91.8701 149.782 91.2315 150.571 91.2315C151.36 91.2315 152 91.8701 152 92.6568C152 93.4415 151.36 94.0822 150.571 94.0822ZM150.571 91.6781C150.029 91.6781 149.589 92.1184 149.589 92.6568C149.589 93.1953 150.029 93.6356 150.571 93.6356C151.113 93.6356 151.552 93.1953 151.552 92.6568C151.552 92.1184 151.113 91.6781 150.571 91.6781Z" fill="url(#paint5_linear_2_7)"/>
<defs>
<linearGradient id="paint0_linear_2_7" x1="120.283" y1="53.0481" x2="123.484" y2="54.3543" gradientUnits="userSpaceOnUse">
<stop stop-color="#FF9666"/>
<stop offset="1" stop-color="#C42D40"/>
</linearGradient>
<linearGradient id="paint1_linear_2_7" x1="0.232351" y1="86.7698" x2="3.43359" y2="88.076" gradientUnits="userSpaceOnUse">
<stop stop-color="#FF9666"/>
<stop offset="1" stop-color="#C42D40"/>
</linearGradient>
<linearGradient id="paint2_linear_2_7" x1="29.8903" y1="127.29" x2="31.8642" y2="129.372" gradientUnits="userSpaceOnUse">
<stop stop-color="#FFDD4F"/>
<stop offset="1" stop-color="#FF8F5C"/>
</linearGradient>
<linearGradient id="paint3_linear_2_7" x1="140.798" y1="124.676" x2="142.772" y2="126.757" gradientUnits="userSpaceOnUse">
<stop stop-color="#FFDD4F"/>
<stop offset="1" stop-color="#FF8F5C"/>
</linearGradient>
<linearGradient id="paint4_linear_2_7" x1="27.6847" y1="54.2105" x2="30.5431" y2="54.2105" gradientUnits="userSpaceOnUse">
<stop stop-color="#5D64C2"/>
<stop offset="1" stop-color="#251978"/>
</linearGradient>
<linearGradient id="paint5_linear_2_7" x1="149.142" y1="92.6568" x2="152" y2="92.6568" gradientUnits="userSpaceOnUse">
<stop stop-color="#5D64C2"/>
<stop offset="1" stop-color="#251978"/>
</linearGradient>
</defs>
</svg>
