<svg id="glipy" viewBox="0 0 64 64" xmlns="http://www.w3.org/2000/svg"><path d="m30.46 32.14993a14.075 14.075 0 1 0 .00012-28.15009c-18.65546.77136-18.67097 27.37958-.00012 28.15009z"/><path d="m46.55 35.87991a12.06 12.06 0 1 0 12.06 12.06 12.09222 12.09222 0 0 0 -12.06-12.06zm5 13.06h-4v4a1.00011 1.00011 0 0 1 -2-.00007v-3.99993h-4a1 1 0 0 1 0-2h4v-4a1 1 0 0 1 2 0v4h4a1.00011 1.00011 0 0 1 0 2z"/><path d="m37.97 36.8099q.435-.33.9-.63c-4.49231-1.79029-9.55292-2.52936-14.2-.87977l-11.4 3.79981a11.52011 11.52011 0 0 0 -7.88 10.94v5.45a4.016 4.016 0 0 0 4.01 4.00996h6.08v-4.63a1.00011 1.00011 0 0 1 2 0v4.63h21.09c-7.77383-5.07812-8.09682-17.20178-.6-22.69z"/></svg>