<svg viewBox="0 0 512 512" xmlns="http://www.w3.org/2000/svg"><g id="Layer_2" data-name="Layer 2"><g id="stroke_copy_7" data-name="stroke copy 7"><g id="_76" data-name="76"><path d="m207 212.11a21.35 21.35 0 1 0 -21.34-21.35 21.37 21.37 0 0 0 21.34 21.35z"/><path d="m256 0c-141.38 0-256 114.62-256 256s114.62 256 256 256 256-114.61 256-256-114.62-256-256-256zm-49 140.23a50.54 50.54 0 1 1 -50.54 50.53 50.59 50.59 0 0 1 50.54-50.53zm85.38 231.54a14.6 14.6 0 0 1 -14.6-14.59 70.79 70.79 0 1 0 -141.57 0 14.6 14.6 0 0 1 -29.2 0 100 100 0 1 1 200 0 14.59 14.59 0 0 1 -14.59 14.59zm97.93-76.67h-73.87a14.6 14.6 0 0 1 0-29.2h73.91a14.6 14.6 0 0 1 0 29.2zm0-48.27h-73.87a14.6 14.6 0 0 1 0-29.2h73.91a14.6 14.6 0 0 1 0 29.2zm0-48.27h-73.87a14.6 14.6 0 0 1 0-29.2h73.91a14.6 14.6 0 0 1 0 29.2z"/></g></g></g></svg>