<svg id="Layer_3" enable-background="new 0 0 32 32" height="512" viewBox="0 0 32 32" width="512" xmlns="http://www.w3.org/2000/svg"><g><path d="m4.02002 7.62c0 1.95996 1.59998 3.56 3.56 3.56 1.96997 0 3.57001-1.60004 3.57001-3.56 0-1.97003-1.60004-3.57001-3.57001-3.57001-1.96002 0-3.56 1.59997-3.56 3.57001z"/><path d="m30 1h-10.66998c-.54999 0-1 .45001-1 1v2.04999h-2.33002c-.54999 0-1 .45001-1 1v10.22998h-.95001c-.45996-2-2.23999-3.5-4.38-3.5h-4.16999c-2.47998 0-4.5 2.02002-4.5 4.5 0 2.47003 2.02002 4.48999 4.5 4.48999h4.16998c2.14001 0 3.92004-1.5 4.38-3.48999h.95002v9.67004c0 .54999.45001 1 1 1h2.33002v2.04999c0 .54999.45001 1 1 1h10.66998c.54999 0 1-.45001 1-1v-6.10999c0-.55005-.45001-1-1-1h-10.66998c-.54999 0-1 .44995-1 1v2.06h-1.33002v-8.67004h1.33002v1.77002c0 .56.45001 1 1 1h10.66998c.54999 0 1-.44 1-1v-6.09998c0-.56-.45001-1-1-1h-10.66998c-.54999 0-1 .44-1 1v2.32996h-1.33002v-9.22998h1.33002v2.06c0 .54999.45001 1 1 1h10.66998c.54999 0 1-.45001 1-1v-6.10999c0-.54999-.45001-1-1-1zm-6.62 24.95001h2.57001c.54999 0 1 .44 1 1 0 .54999-.45001 1-1 1h-2.57001c-.54999 0-1-.45001-1-1 0-.56.45002-1 1-1zm0-10.95001h2.57001c.54999 0 1 .45001 1 1s-.45001 1-1 1h-2.57001c-.54999 0-1-.45001-1-1s.45002-1 1-1zm2.57001-8.95001h-2.57001c-.54999 0-1-.44-1-1 0-.54999.45001-1 1-1h2.57001c.54999 0 1 .45001 1 1 0 .56-.45001 1-1 1z"/></g></svg>